<svg xmlns="http://www.w3.org/2000/svg" viewBox="0 0 900 300" width="100%" height="100%">
    <defs>
        <!-- Background Gradient -->
        <radialGradient id="bgGrad" cx="50%" cy="50%" r="70%">
            <stop offset="0%" stop-color="#120c24" />
            <stop offset="100%" stop-color="#06040a" />
        </radialGradient>
        
        <!-- Glow Filter -->
        <filter id="glow" x="-20%" y="-20%" width="140%" height="140%">
            <feGaussianBlur stdDeviation="3" result="blur" />
            <feComposite in="SourceGraphic" in2="blur" operator="over" />
        </filter>
        <filter id="heavyGlow" x="-50%" y="-50%" width="200%" height="200%">
            <feGaussianBlur stdDeviation="6" result="blur" />
            <feComposite in="SourceGraphic" in2="blur" operator="over" />
        </filter>

        <!-- Moving Grid Pattern -->
        <pattern id="grid" width="60" height="60" patternUnits="userSpaceOnUse" patternTransform="translate(0,0)">
            <animateTransform attributeName="patternTransform" type="translate" from="0 0" to="-60 0" dur="2s" repeatCount="indefinite" />
            <path d="M 60 0 L 0 0 0 60" fill="none" stroke="#ffffff" stroke-width="1" stroke-opacity="0.04"/>
        </pattern>
        
        
<g id="f1-car" transform="scale(0.8)">
    <!-- Rear Wing -->
    <rect x="-42" y="-18" width="10" height="36" rx="2" fill="#111" stroke="#8A2BE2" stroke-width="1.5"/>
    
    <!-- Suspension / Struts -->
    <path d="M -32 -22 L -15 -10 M -32 22 L -15 10 M 20 -20 L 10 -5 M 20 20 L 10 5" stroke="#333" stroke-width="2.5"/>
    
    <!-- Floor/Sidepods -->
    <path d="M-22, -14 L 8, -16 L 22, -10 L 22, 10 L 8, 16 L -22, 14 Z" fill="#151515" stroke="#222" stroke-width="1"/>
    
    <!-- Main Body -->
    <path d="M-38, -5 L-10, -8 L 15, -6 L 38, -3 L 48, 0 L 38, 3 L 15, 6 L -10, 8 L -38, 5 Z" fill="#f4f4f4"/>
    
    <!-- Neon Spine -->
    <path d="M-30, 0 L 25, 0" stroke="#00FFFF" stroke-width="1.5" filter="url(#glow)"/>
    
    <!-- Cockpit / Halo -->
    <ellipse cx="2" cy="0" rx="9" ry="6" fill="#050505" stroke="#333" stroke-width="1"/>
    <!-- Halo strut -->
    <path d="M -2, 0 L 6, 0" stroke="#555" stroke-width="2"/>
    
    <!-- Rear Wheels -->
    <rect x="-36" y="-26" width="18" height="10" rx="3" fill="#080808" />
    <rect x="-36" y="16" width="18" height="10" rx="3" fill="#080808" />
    <!-- Rear Tire Highlights -->
    <rect x="-32" y="-25" width="10" height="2" fill="#222" />
    <rect x="-32" y="17" width="10" height="2" fill="#222" />
    
    <!-- Front Wheels -->
    <rect x="22" y="-23" width="16" height="9" rx="3" fill="#080808" />
    <rect x="22" y="14" width="16" height="9" rx="3" fill="#080808" />
    <!-- Front Tire Highlights -->
    <rect x="25" y="-22" width="10" height="2" fill="#222" />
    <rect x="25" y="15" width="10" height="2" fill="#222" />
    
    <!-- Front Wing -->
    <rect x="42" y="-22" width="6" height="44" rx="2" fill="#111" stroke="#00FFFF" stroke-width="1"/>
    
    <!-- Subtle thruster glow -->
    <circle cx="-44" cy="0" r="4" fill="#8A2BE2" opacity="0.8" filter="url(#glow)">
        <animate attributeName="r" values="3;5;3" dur="0.1s" repeatCount="indefinite" />
        <animate attributeName="opacity" values="0.6;1;0.6" dur="0.1s" repeatCount="indefinite" />
    </circle>
</g>

    </defs>

    <!-- Background -->
    <rect width="900" height="300" fill="url(#bgGrad)" />
    <rect width="900" height="300" fill="url(#grid)" />

    <!-- Neural Network -->
    <g id="neural-net">
        <line x1="100" y1="50" x2="250" y2="40" stroke="#4B0082" stroke-width="1.5" opacity="0.10"/>
<line x1="100" y1="50" x2="50" y2="150" stroke="#4B0082" stroke-width="1.5" opacity="0.18"/>
<line x1="100" y1="50" x2="200" y2="90" stroke="#4B0082" stroke-width="1.5" opacity="0.18"/>
<line x1="250" y1="40" x2="400" y2="60" stroke="#4B0082" stroke-width="1.5" opacity="0.10"/>
<line x1="250" y1="40" x2="200" y2="90" stroke="#4B0082" stroke-width="1.5" opacity="0.26"/>
<line x1="250" y1="40" x2="350" y2="80" stroke="#4B0082" stroke-width="1.5" opacity="0.18"/>
<line x1="250" y1="40" x2="250" y2="210" stroke="#4B0082" stroke-width="1.5" opacity="0.06"/>
<line x1="400" y1="60" x2="550" y2="30" stroke="#4B0082" stroke-width="1.5" opacity="0.09"/>
<line x1="400" y1="60" x2="450" y2="240" stroke="#4B0082" stroke-width="1.5" opacity="0.04"/>
<line x1="400" y1="60" x2="350" y2="80" stroke="#4B0082" stroke-width="1.5" opacity="0.29"/>
<line x1="400" y1="60" x2="500" y2="95" stroke="#4B0082" stroke-width="1.5" opacity="0.19"/>
<line x1="400" y1="60" x2="400" y2="200" stroke="#4B0082" stroke-width="1.5" opacity="0.12"/>
<line x1="550" y1="30" x2="700" y2="70" stroke="#4B0082" stroke-width="1.5" opacity="0.09"/>
<line x1="550" y1="30" x2="500" y2="95" stroke="#4B0082" stroke-width="1.5" opacity="0.24"/>
<line x1="550" y1="30" x2="650" y2="80" stroke="#4B0082" stroke-width="1.5" opacity="0.18"/>
<line x1="550" y1="30" x2="550" y2="215" stroke="#4B0082" stroke-width="1.5" opacity="0.04"/>
<line x1="700" y1="70" x2="850" y2="40" stroke="#4B0082" stroke-width="1.5" opacity="0.09"/>
<line x1="700" y1="70" x2="750" y2="250" stroke="#4B0082" stroke-width="1.5" opacity="0.04"/>
<line x1="700" y1="70" x2="850" y2="150" stroke="#4B0082" stroke-width="1.5" opacity="0.06"/>
<line x1="700" y1="70" x2="650" y2="80" stroke="#4B0082" stroke-width="1.5" opacity="0.30"/>
<line x1="700" y1="70" x2="800" y2="100" stroke="#4B0082" stroke-width="1.5" opacity="0.19"/>
<line x1="700" y1="70" x2="700" y2="200" stroke="#4B0082" stroke-width="1.5" opacity="0.14"/>
<line x1="700" y1="70" x2="800" y2="220" stroke="#4B0082" stroke-width="1.5" opacity="0.04"/>
<line x1="850" y1="40" x2="850" y2="150" stroke="#4B0082" stroke-width="1.5" opacity="0.18"/>
<line x1="850" y1="40" x2="800" y2="100" stroke="#4B0082" stroke-width="1.5" opacity="0.24"/>
<line x1="850" y1="40" x2="800" y2="220" stroke="#4B0082" stroke-width="1.5" opacity="0.04"/>
<line x1="150" y1="250" x2="300" y2="270" stroke="#4B0082" stroke-width="1.5" opacity="0.10"/>
<line x1="150" y1="250" x2="50" y2="150" stroke="#4B0082" stroke-width="1.5" opacity="0.12"/>
<line x1="150" y1="250" x2="200" y2="90" stroke="#4B0082" stroke-width="1.5" opacity="0.06"/>
<line x1="150" y1="250" x2="250" y2="210" stroke="#4B0082" stroke-width="1.5" opacity="0.18"/>
<line x1="300" y1="270" x2="450" y2="240" stroke="#4B0082" stroke-width="1.5" opacity="0.09"/>
<line x1="300" y1="270" x2="350" y2="80" stroke="#4B0082" stroke-width="1.5" opacity="0.04"/>
<line x1="300" y1="270" x2="250" y2="210" stroke="#4B0082" stroke-width="1.5" opacity="0.24"/>
<line x1="300" y1="270" x2="400" y2="200" stroke="#4B0082" stroke-width="1.5" opacity="0.16"/>
<line x1="450" y1="240" x2="600" y2="280" stroke="#4B0082" stroke-width="1.5" opacity="0.09"/>
<line x1="450" y1="240" x2="350" y2="80" stroke="#4B0082" stroke-width="1.5" opacity="0.04"/>
<line x1="450" y1="240" x2="500" y2="95" stroke="#4B0082" stroke-width="1.5" opacity="0.09"/>
<line x1="450" y1="240" x2="400" y2="200" stroke="#4B0082" stroke-width="1.5" opacity="0.27"/>
<line x1="450" y1="240" x2="550" y2="215" stroke="#4B0082" stroke-width="1.5" opacity="0.19"/>
<line x1="600" y1="280" x2="750" y2="250" stroke="#4B0082" stroke-width="1.5" opacity="0.09"/>
<line x1="600" y1="280" x2="550" y2="215" stroke="#4B0082" stroke-width="1.5" opacity="0.24"/>
<line x1="600" y1="280" x2="700" y2="200" stroke="#4B0082" stroke-width="1.5" opacity="0.14"/>
<line x1="750" y1="250" x2="850" y2="270" stroke="#4B0082" stroke-width="1.5" opacity="0.20"/>
<line x1="750" y1="250" x2="850" y2="150" stroke="#4B0082" stroke-width="1.5" opacity="0.12"/>
<line x1="750" y1="250" x2="650" y2="80" stroke="#4B0082" stroke-width="1.5" opacity="0.04"/>
<line x1="750" y1="250" x2="800" y2="100" stroke="#4B0082" stroke-width="1.5" opacity="0.08"/>
<line x1="750" y1="250" x2="700" y2="200" stroke="#4B0082" stroke-width="1.5" opacity="0.26"/>
<line x1="750" y1="250" x2="800" y2="220" stroke="#4B0082" stroke-width="1.5" opacity="0.28"/>
<line x1="850" y1="270" x2="850" y2="150" stroke="#4B0082" stroke-width="1.5" opacity="0.16"/>
<line x1="850" y1="270" x2="800" y2="100" stroke="#4B0082" stroke-width="1.5" opacity="0.05"/>
<line x1="850" y1="270" x2="700" y2="200" stroke="#4B0082" stroke-width="1.5" opacity="0.07"/>
<line x1="850" y1="270" x2="800" y2="220" stroke="#4B0082" stroke-width="1.5" opacity="0.26"/>
<line x1="50" y1="150" x2="200" y2="90" stroke="#4B0082" stroke-width="1.5" opacity="0.08"/>
<line x1="850" y1="150" x2="800" y2="100" stroke="#4B0082" stroke-width="1.5" opacity="0.26"/>
<line x1="850" y1="150" x2="700" y2="200" stroke="#4B0082" stroke-width="1.5" opacity="0.08"/>
<line x1="850" y1="150" x2="800" y2="220" stroke="#4B0082" stroke-width="1.5" opacity="0.23"/>
<line x1="200" y1="90" x2="350" y2="80" stroke="#4B0082" stroke-width="1.5" opacity="0.10"/>
<line x1="200" y1="90" x2="250" y2="210" stroke="#4B0082" stroke-width="1.5" opacity="0.14"/>
<line x1="350" y1="80" x2="500" y2="95" stroke="#4B0082" stroke-width="1.5" opacity="0.10"/>
<line x1="350" y1="80" x2="250" y2="210" stroke="#4B0082" stroke-width="1.5" opacity="0.07"/>
<line x1="350" y1="80" x2="400" y2="200" stroke="#4B0082" stroke-width="1.5" opacity="0.14"/>
<line x1="500" y1="95" x2="650" y2="80" stroke="#4B0082" stroke-width="1.5" opacity="0.10"/>
<line x1="500" y1="95" x2="400" y2="200" stroke="#4B0082" stroke-width="1.5" opacity="0.11"/>
<line x1="500" y1="95" x2="550" y2="215" stroke="#4B0082" stroke-width="1.5" opacity="0.14"/>
<line x1="650" y1="80" x2="800" y2="100" stroke="#4B0082" stroke-width="1.5" opacity="0.10"/>
<line x1="650" y1="80" x2="550" y2="215" stroke="#4B0082" stroke-width="1.5" opacity="0.06"/>
<line x1="650" y1="80" x2="700" y2="200" stroke="#4B0082" stroke-width="1.5" opacity="0.14"/>
<line x1="800" y1="100" x2="700" y2="200" stroke="#4B0082" stroke-width="1.5" opacity="0.12"/>
<line x1="800" y1="100" x2="800" y2="220" stroke="#4B0082" stroke-width="1.5" opacity="0.16"/>
<line x1="250" y1="210" x2="400" y2="200" stroke="#4B0082" stroke-width="1.5" opacity="0.10"/>
<line x1="400" y1="200" x2="550" y2="215" stroke="#4B0082" stroke-width="1.5" opacity="0.10"/>
<line x1="550" y1="215" x2="700" y2="200" stroke="#4B0082" stroke-width="1.5" opacity="0.10"/>
<line x1="700" y1="200" x2="800" y2="220" stroke="#4B0082" stroke-width="1.5" opacity="0.20"/>

        
    <circle cx="100" cy="50" r="2" fill="#00FFFF" filter="url(#glow)">
        <animate attributeName="r" values="2;3.5;2" dur="2.4s" repeatCount="indefinite" />
        <animate attributeName="opacity" values="0.6;1;0.6" dur="2.4s" repeatCount="indefinite" />
    </circle>
    
    <circle cx="250" cy="40" r="2" fill="#00FFFF" filter="url(#glow)">
        <animate attributeName="r" values="2;3.5;2" dur="2.2s" repeatCount="indefinite" />
        <animate attributeName="opacity" values="0.6;1;0.6" dur="2.2s" repeatCount="indefinite" />
    </circle>
    
    <circle cx="400" cy="60" r="2" fill="#00FFFF" filter="url(#glow)">
        <animate attributeName="r" values="2;3.5;2" dur="3.0s" repeatCount="indefinite" />
        <animate attributeName="opacity" values="0.6;1;0.6" dur="3.0s" repeatCount="indefinite" />
    </circle>
    
    <circle cx="550" cy="30" r="2" fill="#00FFFF" filter="url(#glow)">
        <animate attributeName="r" values="2;3.5;2" dur="2.2s" repeatCount="indefinite" />
        <animate attributeName="opacity" values="0.6;1;0.6" dur="2.2s" repeatCount="indefinite" />
    </circle>
    
    <circle cx="700" cy="70" r="2" fill="#00FFFF" filter="url(#glow)">
        <animate attributeName="r" values="2;3.5;2" dur="3.1s" repeatCount="indefinite" />
        <animate attributeName="opacity" values="0.6;1;0.6" dur="3.1s" repeatCount="indefinite" />
    </circle>
    
    <circle cx="850" cy="40" r="2" fill="#00FFFF" filter="url(#glow)">
        <animate attributeName="r" values="2;3.5;2" dur="2.1s" repeatCount="indefinite" />
        <animate attributeName="opacity" values="0.6;1;0.6" dur="2.1s" repeatCount="indefinite" />
    </circle>
    
    <circle cx="150" cy="250" r="2" fill="#00FFFF" filter="url(#glow)">
        <animate attributeName="r" values="2;3.5;2" dur="3.9s" repeatCount="indefinite" />
        <animate attributeName="opacity" values="0.6;1;0.6" dur="3.9s" repeatCount="indefinite" />
    </circle>
    
    <circle cx="300" cy="270" r="2" fill="#00FFFF" filter="url(#glow)">
        <animate attributeName="r" values="2;3.5;2" dur="2.4s" repeatCount="indefinite" />
        <animate attributeName="opacity" values="0.6;1;0.6" dur="2.4s" repeatCount="indefinite" />
    </circle>
    
    <circle cx="450" cy="240" r="2" fill="#00FFFF" filter="url(#glow)">
        <animate attributeName="r" values="2;3.5;2" dur="3.5s" repeatCount="indefinite" />
        <animate attributeName="opacity" values="0.6;1;0.6" dur="3.5s" repeatCount="indefinite" />
    </circle>
    
    <circle cx="600" cy="280" r="2" fill="#00FFFF" filter="url(#glow)">
        <animate attributeName="r" values="2;3.5;2" dur="3.6s" repeatCount="indefinite" />
        <animate attributeName="opacity" values="0.6;1;0.6" dur="3.6s" repeatCount="indefinite" />
    </circle>
    
    <circle cx="750" cy="250" r="2" fill="#00FFFF" filter="url(#glow)">
        <animate attributeName="r" values="2;3.5;2" dur="3.6s" repeatCount="indefinite" />
        <animate attributeName="opacity" values="0.6;1;0.6" dur="3.6s" repeatCount="indefinite" />
    </circle>
    
    <circle cx="850" cy="270" r="2" fill="#00FFFF" filter="url(#glow)">
        <animate attributeName="r" values="2;3.5;2" dur="2.5s" repeatCount="indefinite" />
        <animate attributeName="opacity" values="0.6;1;0.6" dur="2.5s" repeatCount="indefinite" />
    </circle>
    
    <circle cx="50" cy="150" r="2" fill="#00FFFF" filter="url(#glow)">
        <animate attributeName="r" values="2;3.5;2" dur="2.0s" repeatCount="indefinite" />
        <animate attributeName="opacity" values="0.6;1;0.6" dur="2.0s" repeatCount="indefinite" />
    </circle>
    
    <circle cx="850" cy="150" r="2" fill="#00FFFF" filter="url(#glow)">
        <animate attributeName="r" values="2;3.5;2" dur="3.8s" repeatCount="indefinite" />
        <animate attributeName="opacity" values="0.6;1;0.6" dur="3.8s" repeatCount="indefinite" />
    </circle>
    
    <circle cx="200" cy="90" r="2" fill="#00FFFF" filter="url(#glow)">
        <animate attributeName="r" values="2;3.5;2" dur="2.9s" repeatCount="indefinite" />
        <animate attributeName="opacity" values="0.6;1;0.6" dur="2.9s" repeatCount="indefinite" />
    </circle>
    
    <circle cx="350" cy="80" r="2" fill="#00FFFF" filter="url(#glow)">
        <animate attributeName="r" values="2;3.5;2" dur="3.3s" repeatCount="indefinite" />
        <animate attributeName="opacity" values="0.6;1;0.6" dur="3.3s" repeatCount="indefinite" />
    </circle>
    
    <circle cx="500" cy="95" r="2" fill="#00FFFF" filter="url(#glow)">
        <animate attributeName="r" values="2;3.5;2" dur="2.2s" repeatCount="indefinite" />
        <animate attributeName="opacity" values="0.6;1;0.6" dur="2.2s" repeatCount="indefinite" />
    </circle>
    
    <circle cx="650" cy="80" r="2" fill="#00FFFF" filter="url(#glow)">
        <animate attributeName="r" values="2;3.5;2" dur="3.9s" repeatCount="indefinite" />
        <animate attributeName="opacity" values="0.6;1;0.6" dur="3.9s" repeatCount="indefinite" />
    </circle>
    
    <circle cx="800" cy="100" r="2" fill="#00FFFF" filter="url(#glow)">
        <animate attributeName="r" values="2;3.5;2" dur="3.8s" repeatCount="indefinite" />
        <animate attributeName="opacity" values="0.6;1;0.6" dur="3.8s" repeatCount="indefinite" />
    </circle>
    
    <circle cx="250" cy="210" r="2" fill="#00FFFF" filter="url(#glow)">
        <animate attributeName="r" values="2;3.5;2" dur="3.5s" repeatCount="indefinite" />
        <animate attributeName="opacity" values="0.6;1;0.6" dur="3.5s" repeatCount="indefinite" />
    </circle>
    
    <circle cx="400" cy="200" r="2" fill="#00FFFF" filter="url(#glow)">
        <animate attributeName="r" values="2;3.5;2" dur="2.1s" repeatCount="indefinite" />
        <animate attributeName="opacity" values="0.6;1;0.6" dur="2.1s" repeatCount="indefinite" />
    </circle>
    
    <circle cx="550" cy="215" r="2" fill="#00FFFF" filter="url(#glow)">
        <animate attributeName="r" values="2;3.5;2" dur="3.1s" repeatCount="indefinite" />
        <animate attributeName="opacity" values="0.6;1;0.6" dur="3.1s" repeatCount="indefinite" />
    </circle>
    
    <circle cx="700" cy="200" r="2" fill="#00FFFF" filter="url(#glow)">
        <animate attributeName="r" values="2;3.5;2" dur="3.9s" repeatCount="indefinite" />
        <animate attributeName="opacity" values="0.6;1;0.6" dur="3.9s" repeatCount="indefinite" />
    </circle>
    
    <circle cx="800" cy="220" r="2" fill="#00FFFF" filter="url(#glow)">
        <animate attributeName="r" values="2;3.5;2" dur="3.3s" repeatCount="indefinite" />
        <animate attributeName="opacity" values="0.6;1;0.6" dur="3.3s" repeatCount="indefinite" />
    </circle>
    
        
        <circle r="1.5" fill="#8A2BE2" filter="url(#glow)">
            <animateMotion dur="1.6s" begin="1.7s" repeatCount="indefinite">
                <mpath href="#pe-0"/>
            </animateMotion>
        </circle>
        <path id="pe-0" d="M 850 150 L 700 200" fill="none" stroke="none" />
        
        <circle r="1.5" fill="#8A2BE2" filter="url(#glow)">
            <animateMotion dur="2.0s" begin="1.1s" repeatCount="indefinite">
                <mpath href="#pe-1"/>
            </animateMotion>
        </circle>
        <path id="pe-1" d="M 750 250 L 650 80" fill="none" stroke="none" />
        
        <circle r="1.5" fill="#8A2BE2" filter="url(#glow)">
            <animateMotion dur="2.0s" begin="1.5s" repeatCount="indefinite">
                <mpath href="#pe-2"/>
            </animateMotion>
        </circle>
        <path id="pe-2" d="M 350 80 L 500 95" fill="none" stroke="none" />
        
        <circle r="1.5" fill="#8A2BE2" filter="url(#glow)">
            <animateMotion dur="2.4s" begin="0.4s" repeatCount="indefinite">
                <mpath href="#pe-3"/>
            </animateMotion>
        </circle>
        <path id="pe-3" d="M 850 40 L 850 150" fill="none" stroke="none" />
        
        <circle r="1.5" fill="#8A2BE2" filter="url(#glow)">
            <animateMotion dur="2.5s" begin="1.8s" repeatCount="indefinite">
                <mpath href="#pe-4"/>
            </animateMotion>
        </circle>
        <path id="pe-4" d="M 150 250 L 300 270" fill="none" stroke="none" />
        
        <circle r="1.5" fill="#8A2BE2" filter="url(#glow)">
            <animateMotion dur="2.4s" begin="1.3s" repeatCount="indefinite">
                <mpath href="#pe-5"/>
            </animateMotion>
        </circle>
        <path id="pe-5" d="M 350 80 L 250 210" fill="none" stroke="none" />
        
        <circle r="1.5" fill="#8A2BE2" filter="url(#glow)">
            <animateMotion dur="1.7s" begin="1.6s" repeatCount="indefinite">
                <mpath href="#pe-6"/>
            </animateMotion>
        </circle>
        <path id="pe-6" d="M 600 280 L 550 215" fill="none" stroke="none" />
        
        <circle r="1.5" fill="#8A2BE2" filter="url(#glow)">
            <animateMotion dur="2.6s" begin="1.2s" repeatCount="indefinite">
                <mpath href="#pe-7"/>
            </animateMotion>
        </circle>
        <path id="pe-7" d="M 850 150 L 800 220" fill="none" stroke="none" />
        
        <circle r="1.5" fill="#8A2BE2" filter="url(#glow)">
            <animateMotion dur="2.6s" begin="1.5s" repeatCount="indefinite">
                <mpath href="#pe-8"/>
            </animateMotion>
        </circle>
        <path id="pe-8" d="M 850 270 L 700 200" fill="none" stroke="none" />
        
        <circle r="1.5" fill="#8A2BE2" filter="url(#glow)">
            <animateMotion dur="2.0s" begin="0.5s" repeatCount="indefinite">
                <mpath href="#pe-9"/>
            </animateMotion>
        </circle>
        <path id="pe-9" d="M 850 270 L 800 100" fill="none" stroke="none" />
        
        <circle r="1.5" fill="#8A2BE2" filter="url(#glow)">
            <animateMotion dur="2.3s" begin="2.0s" repeatCount="indefinite">
                <mpath href="#pe-10"/>
            </animateMotion>
        </circle>
        <path id="pe-10" d="M 300 270 L 400 200" fill="none" stroke="none" />
        
        <circle r="1.5" fill="#8A2BE2" filter="url(#glow)">
            <animateMotion dur="2.0s" begin="0.5s" repeatCount="indefinite">
                <mpath href="#pe-11"/>
            </animateMotion>
        </circle>
        <path id="pe-11" d="M 50 150 L 200 90" fill="none" stroke="none" />
        
        <circle r="1.5" fill="#8A2BE2" filter="url(#glow)">
            <animateMotion dur="2.7s" begin="1.9s" repeatCount="indefinite">
                <mpath href="#pe-12"/>
            </animateMotion>
        </circle>
        <path id="pe-12" d="M 450 240 L 500 95" fill="none" stroke="none" />
        
        <circle r="1.5" fill="#8A2BE2" filter="url(#glow)">
            <animateMotion dur="2.1s" begin="0.9s" repeatCount="indefinite">
                <mpath href="#pe-13"/>
            </animateMotion>
        </circle>
        <path id="pe-13" d="M 700 70 L 800 220" fill="none" stroke="none" />
        
        <circle r="1.5" fill="#8A2BE2" filter="url(#glow)">
            <animateMotion dur="2.9s" begin="1.4s" repeatCount="indefinite">
                <mpath href="#pe-14"/>
            </animateMotion>
        </circle>
        <path id="pe-14" d="M 400 200 L 550 215" fill="none" stroke="none" />
        
        <text x="100" y="30" fill="#6b4c9a" font-family="Arial, sans-serif" font-size="9" font-weight="bold" letter-spacing="1.5">DEEP LEARNING</text>
<text x="380" y="45" fill="#6b4c9a" font-family="Arial, sans-serif" font-size="9" font-weight="bold" letter-spacing="1.5">NEURAL PDE SOLVER</text>
<text x="680" y="55" fill="#6b4c9a" font-family="Arial, sans-serif" font-size="9" font-weight="bold" letter-spacing="1.5">REINFORCEMENT LEARNING</text>
<text x="350" y="290" fill="#6b4c9a" font-family="Arial, sans-serif" font-size="9" font-weight="bold" letter-spacing="1.5">AERO OPTIMIZATION</text>
<text x="700" y="280" fill="#6b4c9a" font-family="Arial, sans-serif" font-size="9" font-weight="bold" letter-spacing="1.5">DATA TELEMETRY</text>
<text x="120" y="280" fill="#6b4c9a" font-family="Arial, sans-serif" font-size="9" font-weight="bold" letter-spacing="1.5">PINN ARCHITECTURE</text>

    </g>

    <!-- Racing Line Base -->
    <path id="track-path" d="M -50 180 C 200 200, 300 80, 450 150 C 600 220, 750 100, 950 150" fill="none" stroke="#25124d" stroke-width="12" stroke-linecap="round"/>
    <!-- Racing Line Inner Glow -->
    <path d="M -50 180 C 200 200, 300 80, 450 150 C 600 220, 750 100, 950 150" fill="none" stroke="#8A2BE2" stroke-width="3" filter="url(#heavyGlow)" stroke-linecap="round"/>
    
    <!-- Moving Track Energy -->
    <path d="M -50 180 C 200 200, 300 80, 450 150 C 600 220, 750 100, 950 150" fill="none" stroke="#00FFFF" stroke-width="2" filter="url(#glow)" stroke-linecap="round" stroke-dasharray="30 200">
        <animate attributeName="stroke-dashoffset" from="230" to="0" dur="1s" repeatCount="indefinite" />
    </path>

    <!-- The F1 Car -->
    <g>
        <use href="#f1-car" />
        <animateMotion dur="4s" repeatCount="indefinite" rotate="auto" keyPoints="0;1" keyTimes="0;1" calcMode="linear">
            <mpath href="#track-path" />
        </animateMotion>
    </g>

    <!-- Telemetry HUD -->
    
<g transform="translate(20, 25)">
    <text x="0" y="0" fill="#00FFFF" font-family="monospace" font-size="12" font-weight="bold" letter-spacing="1" filter="url(#glow)">SYS.TELEMETRY</text>
    
    <text x="0" y="20" fill="#777" font-family="monospace" font-size="10">SPD</text>
    <rect x="30" y="13" width="70" height="5" fill="#222" rx="2.5"/>
    <rect x="30" y="13" width="60" height="5" fill="#00FFFF" rx="2.5" filter="url(#glow)">
        <animate attributeName="width" values="55;65;58;62;55" dur="3.2s" repeatCount="indefinite" />
    </rect>

    <text x="0" y="35" fill="#777" font-family="monospace" font-size="10">RPM</text>
    <rect x="30" y="28" width="70" height="5" fill="#222" rx="2.5"/>
    <rect x="30" y="28" width="65" height="5" fill="#8A2BE2" rx="2.5" filter="url(#glow)">
        <animate attributeName="width" values="60;68;62;70;60" dur="2.1s" repeatCount="indefinite" />
    </rect>

    <text x="0" y="50" fill="#777" font-family="monospace" font-size="10">AI</text>
    <rect x="30" y="43" width="70" height="5" fill="#222" rx="2.5"/>
    <rect x="30" y="43" width="50" height="5" fill="#00FFCC" rx="2.5" filter="url(#glow)">
        <animate attributeName="width" values="50;53;51;54;50" dur="4.5s" repeatCount="indefinite" />
    </rect>
</g>


</svg>
